<svg width="45" height="10" viewBox="0 0 45 10" fill="none" xmlns="http://www.w3.org/2000/svg">
<path d="M44.544 4.63637C44.544 5.58807 44.3636 6.39773 44.0028 7.06534C43.6449 7.73296 43.1562 8.2429 42.5369 8.59517C41.9204 8.9446 41.2273 9.11932 40.4574 9.11932C39.6818 9.11932 38.9858 8.94318 38.3693 8.59091C37.7528 8.23864 37.2656 7.7287 36.9077 7.06108C36.5497 6.39347 36.3707 5.58523 36.3707 4.63637C36.3707 3.68466 36.5497 2.875 36.9077 2.20739C37.2656 1.53978 37.7528 1.03125 38.3693 0.681821C38.9858 0.329548 39.6818 0.153412 40.4574 0.153412C41.2273 0.153412 41.9204 0.329548 42.5369 0.681821C43.1562 1.03125 43.6449 1.53978 44.0028 2.20739C44.3636 2.875 44.544 3.68466 44.544 4.63637ZM42.6733 4.63637C42.6733 4.01989 42.581 3.5 42.3963 3.07671C42.2145 2.65341 41.9574 2.33239 41.625 2.11364C41.2926 1.89489 40.9034 1.78551 40.4574 1.78551C40.0114 1.78551 39.6221 1.89489 39.2898 2.11364C38.9574 2.33239 38.6989 2.65341 38.5142 3.07671C38.3324 3.5 38.2415 4.01989 38.2415 4.63637C38.2415 5.25284 38.3324 5.77273 38.5142 6.19603C38.6989 6.61932 38.9574 6.94034 39.2898 7.15909C39.6221 7.37784 40.0114 7.48722 40.4574 7.48722C40.9034 7.48722 41.2926 7.37784 41.625 7.15909C41.9574 6.94034 42.2145 6.61932 42.3963 6.19603C42.581 5.77273 42.6733 5.25284 42.6733 4.63637Z" fill="black"/>
<path d="M28.9144 9V7.67046L32.0209 4.79404C32.2851 4.53835 32.5067 4.30824 32.6857 4.1037C32.8675 3.89915 33.0053 3.69887 33.099 3.50284C33.1928 3.30398 33.2397 3.08949 33.2397 2.85938C33.2397 2.6037 33.1814 2.38353 33.065 2.19887C32.9485 2.01137 32.7894 1.8679 32.5877 1.76847C32.386 1.6662 32.1573 1.61506 31.9016 1.61506C31.6346 1.61506 31.4016 1.66904 31.2027 1.77699C31.0039 1.88495 30.8505 2.03978 30.7425 2.24148C30.6346 2.44318 30.5806 2.68324 30.5806 2.96165H28.8292C28.8292 2.39063 28.9584 1.89489 29.2169 1.47444C29.4755 1.05398 29.8377 0.728696 30.3036 0.498582C30.7695 0.268469 31.3064 0.153412 31.9144 0.153412C32.5394 0.153412 33.0834 0.264207 33.5465 0.485798C34.0124 0.704548 34.3746 1.00853 34.6331 1.39773C34.8917 1.78693 35.0209 2.23296 35.0209 2.7358C35.0209 3.06534 34.9556 3.39063 34.8249 3.71165C34.6971 4.03267 34.4684 4.38921 34.1388 4.78125C33.8093 5.17046 33.3448 5.63779 32.7454 6.18324L31.4712 7.43182V7.49148H35.136V9H28.9144Z" fill="black"/>
<path d="M20.0125 9.00001V0.272736H21.8576V3.87359H25.6034V0.272736H27.4443V9.00001H25.6034V5.39489H21.8576V9.00001H20.0125Z" fill="black"/>
<path d="M18.5241 0.272736V9.00001H16.7088V0.272736H18.5241Z" fill="black"/>
<path d="M11.6143 9.12359C11.1967 9.12359 10.8246 9.05114 10.4979 8.90626C10.1712 8.75853 9.91263 8.5412 9.72229 8.25427C9.53479 7.96449 9.44104 7.6037 9.44104 7.17188C9.44104 6.80824 9.5078 6.50285 9.64132 6.25569C9.77485 6.00853 9.95666 5.80966 10.1868 5.6591C10.4169 5.50853 10.6783 5.39489 10.9709 5.31819C11.2663 5.24148 11.576 5.18751 11.8998 5.15626C12.2805 5.11648 12.5873 5.07955 12.8203 5.04546C13.0533 5.00853 13.2223 4.95455 13.3274 4.88353C13.4325 4.81251 13.4851 4.70739 13.4851 4.56819V4.54262C13.4851 4.27273 13.3998 4.06393 13.2294 3.9162C13.0618 3.76847 12.8231 3.69461 12.5135 3.69461C12.1868 3.69461 11.9268 3.76705 11.7337 3.91194C11.5405 4.05398 11.4126 4.23296 11.3501 4.44887L9.67115 4.31251C9.75638 3.91478 9.92399 3.57103 10.174 3.28126C10.424 2.98864 10.7464 2.76421 11.1413 2.60796C11.5391 2.44887 11.9993 2.36932 12.522 2.36932C12.8856 2.36932 13.2337 2.41194 13.566 2.49716C13.9013 2.58239 14.1981 2.71449 14.4567 2.89347C14.718 3.07245 14.924 3.30256 15.0746 3.58381C15.2251 3.86222 15.3004 4.19603 15.3004 4.58523V9.00001H13.5788V8.09234H13.5277C13.4226 8.29688 13.2819 8.47728 13.1058 8.63353C12.9297 8.78694 12.718 8.90768 12.4709 8.99574C12.2237 9.08097 11.9382 9.12359 11.6143 9.12359ZM12.1342 7.87074C12.4013 7.87074 12.6371 7.81819 12.8416 7.71307C13.0462 7.60512 13.2067 7.46023 13.3231 7.27841C13.4396 7.0966 13.4979 6.89063 13.4979 6.66052V5.96591C13.441 6.00285 13.3629 6.03694 13.2635 6.06819C13.1669 6.0966 13.0575 6.12359 12.9354 6.14915C12.8132 6.17188 12.691 6.19319 12.5689 6.21307C12.4467 6.23012 12.3359 6.24574 12.2365 6.25995C12.0234 6.2912 11.8373 6.34091 11.6783 6.4091C11.5192 6.47728 11.3956 6.56961 11.3075 6.68609C11.2194 6.79972 11.1754 6.94177 11.1754 7.11222C11.1754 7.35938 11.2649 7.5483 11.4439 7.67898C11.6257 7.80682 11.8558 7.87074 12.1342 7.87074Z" fill="black"/>
<path d="M8.4588 3.32813H6.59232C6.55823 3.08665 6.48863 2.87216 6.38351 2.68466C6.2784 2.49432 6.14346 2.33239 5.97868 2.19887C5.81391 2.06534 5.62357 1.96307 5.40766 1.89205C5.19459 1.82103 4.96306 1.78551 4.71306 1.78551C4.26135 1.78551 3.86789 1.89773 3.53266 2.12216C3.19743 2.34375 2.93749 2.66762 2.75283 3.09375C2.56817 3.51705 2.47584 4.03125 2.47584 4.63637C2.47584 5.25853 2.56817 5.78125 2.75283 6.20455C2.94033 6.62784 3.20169 6.94745 3.53692 7.16335C3.87215 7.37926 4.25993 7.48722 4.70027 7.48722C4.94743 7.48722 5.17613 7.45455 5.38635 7.38921C5.59942 7.32387 5.78834 7.2287 5.95311 7.1037C6.11789 6.97585 6.25425 6.82103 6.36221 6.63921C6.473 6.45739 6.54971 6.25 6.59232 6.01705L8.4588 6.02557C8.4105 6.42614 8.28976 6.8125 8.09658 7.18466C7.90624 7.55398 7.64914 7.88495 7.32527 8.17756C7.00425 8.46733 6.62073 8.69745 6.17471 8.8679C5.73152 9.03551 5.2301 9.11932 4.67044 9.11932C3.89203 9.11932 3.19601 8.94318 2.58238 8.59091C1.97158 8.23864 1.48863 7.7287 1.13351 7.06108C0.781239 6.39347 0.605103 5.58523 0.605103 4.63637C0.605103 3.68466 0.78408 2.875 1.14203 2.20739C1.49999 1.53978 1.98578 1.03125 2.59942 0.681821C3.21306 0.329548 3.9034 0.153412 4.67044 0.153412C5.17613 0.153412 5.64488 0.224435 6.07669 0.36648C6.51135 0.508526 6.8963 0.715912 7.23152 0.988639C7.56675 1.25853 7.83948 1.58949 8.04971 1.98154C8.26277 2.37358 8.39914 2.82245 8.4588 3.32813Z" fill="black"/>
</svg>
